<svg width="306" height="33" viewBox="0 0 306 33" fill="none" xmlns="http://www.w3.org/2000/svg">
<path d="M2.66 26C2.45467 26 2.28667 25.9347 2.156 25.804C2.02533 25.6733 1.96 25.5053 1.96 25.3V7.1C1.96 6.89467 2.02533 6.72667 2.156 6.596C2.28667 6.46533 2.45467 6.4 2.66 6.4H5.628C5.94533 6.4 6.16933 6.47467 6.3 6.624C6.44933 6.75467 6.54267 6.85733 6.58 6.932L13.412 17.712V7.1C13.412 6.89467 13.4773 6.72667 13.608 6.596C13.7387 6.46533 13.9067 6.4 14.112 6.4H17.472C17.6773 6.4 17.8453 6.46533 17.976 6.596C18.1067 6.72667 18.172 6.89467 18.172 7.1V25.3C18.172 25.4867 18.1067 25.6547 17.976 25.804C17.8453 25.9347 17.6773 26 17.472 26H14.476C14.1773 26 13.9533 25.9253 13.804 25.776C13.6733 25.6267 13.5893 25.524 13.552 25.468L6.72 15.108V25.3C6.72 25.5053 6.65467 25.6733 6.524 25.804C6.39333 25.9347 6.22533 26 6.02 26H2.66ZM20.965 26C20.8157 26 20.6757 25.944 20.545 25.832C20.433 25.7013 20.377 25.5613 20.377 25.412C20.377 25.3187 20.3863 25.2347 20.405 25.16L26.985 7.184C27.041 6.97867 27.153 6.80133 27.321 6.652C27.5077 6.484 27.7597 6.4 28.077 6.4H32.221C32.5383 6.4 32.781 6.484 32.949 6.652C33.1357 6.80133 33.257 6.97867 33.313 7.184L39.865 25.16C39.9023 25.2347 39.921 25.3187 39.921 25.412C39.921 25.5613 39.8557 25.7013 39.725 25.832C39.613 25.944 39.473 26 39.305 26H35.861C35.581 26 35.3663 25.9347 35.217 25.804C35.0863 25.6547 35.0023 25.524 34.965 25.412L33.873 22.556H26.397L25.333 25.412C25.2957 25.524 25.2117 25.6547 25.081 25.804C24.9503 25.9347 24.7263 26 24.409 26H20.965ZM27.545 18.524H32.753L30.121 11.132L27.545 18.524ZM42.828 26C42.6413 26 42.4733 25.9347 42.324 25.804C42.1933 25.6733 42.128 25.5053 42.128 25.3V7.1C42.128 6.89467 42.1933 6.72667 42.324 6.596C42.4733 6.46533 42.6413 6.4 42.828 6.4H45.852C46.1506 6.4 46.3746 6.484 46.524 6.652C46.692 6.80133 46.7946 6.92267 46.832 7.016L51.76 15.864L56.688 7.016C56.744 6.92267 56.8373 6.80133 56.968 6.652C57.1173 6.484 57.3506 6.4 57.668 6.4H60.664C60.8693 6.4 61.0373 6.46533 61.168 6.596C61.3173 6.72667 61.392 6.89467 61.392 7.1V25.3C61.392 25.5053 61.3173 25.6733 61.168 25.804C61.0373 25.9347 60.8693 26 60.664 26H57.332C57.1266 26 56.9493 25.9347 56.8 25.804C56.6693 25.6733 56.604 25.5053 56.604 25.3V14.8L53.44 20.652C53.3653 20.82 53.2533 20.9693 53.104 21.1C52.9546 21.2307 52.7493 21.296 52.488 21.296H51.032C50.7706 21.296 50.5653 21.2307 50.416 21.1C50.2666 20.9693 50.1453 20.82 50.052 20.652L46.888 14.8V25.3C46.888 25.5053 46.8226 25.6733 46.692 25.804C46.5613 25.9347 46.3933 26 46.188 26H42.828ZM64.1681 26C64.0188 26 63.8788 25.944 63.7481 25.832C63.6361 25.7013 63.5801 25.5613 63.5801 25.412C63.5801 25.3187 63.5895 25.2347 63.6081 25.16L70.1881 7.184C70.2441 6.97867 70.3561 6.80133 70.5241 6.652C70.7108 6.484 70.9628 6.4 71.2801 6.4H75.4241C75.7415 6.4 75.9841 6.484 76.1521 6.652C76.3388 6.80133 76.4601 6.97867 76.5161 7.184L83.0681 25.16C83.1055 25.2347 83.1241 25.3187 83.1241 25.412C83.1241 25.5613 83.0588 25.7013 82.9281 25.832C82.8161 25.944 82.6761 26 82.5081 26H79.0641C78.7841 26 78.5695 25.9347 78.4201 25.804C78.2895 25.6547 78.2055 25.524 78.1681 25.412L77.0761 22.556H69.6001L68.5361 25.412C68.4988 25.524 68.4148 25.6547 68.2841 25.804C68.1535 25.9347 67.9295 26 67.6121 26H64.1681ZM70.7481 18.524H75.9561L73.3241 11.132L70.7481 18.524ZM86.0311 26C85.8258 26 85.6578 25.9347 85.5271 25.804C85.3964 25.6733 85.3311 25.5053 85.3311 25.3V7.1C85.3311 6.89467 85.3964 6.72667 85.5271 6.596C85.6578 6.46533 85.8258 6.4 86.0311 6.4H88.9991C89.3164 6.4 89.5404 6.47467 89.6711 6.624C89.8204 6.75467 89.9138 6.85733 89.9511 6.932L96.7831 17.712V7.1C96.7831 6.89467 96.8484 6.72667 96.9791 6.596C97.1098 6.46533 97.2778 6.4 97.4831 6.4H100.843C101.048 6.4 101.216 6.46533 101.347 6.596C101.478 6.72667 101.543 6.89467 101.543 7.1V25.3C101.543 25.4867 101.478 25.6547 101.347 25.804C101.216 25.9347 101.048 26 100.843 26H97.8471C97.5484 26 97.3244 25.9253 97.1751 25.776C97.0444 25.6267 96.9604 25.524 96.9231 25.468L90.0911 15.108V25.3C90.0911 25.5053 90.0258 25.6733 89.8951 25.804C89.7644 25.9347 89.5964 26 89.3911 26H86.0311ZM113.548 26.28C111.775 26.28 110.244 25.9907 108.956 25.412C107.687 24.8147 106.697 23.956 105.988 22.836C105.297 21.6973 104.915 20.316 104.84 18.692C104.821 17.8893 104.812 17.04 104.812 16.144C104.812 15.2293 104.821 14.3613 104.84 13.54C104.915 11.9533 105.307 10.6093 106.016 9.508C106.725 8.40667 107.724 7.56667 109.012 6.988C110.3 6.40933 111.812 6.12 113.548 6.12C114.948 6.12 116.189 6.29733 117.272 6.652C118.355 6.988 119.26 7.44533 119.988 8.024C120.735 8.60267 121.295 9.23733 121.668 9.928C122.06 10.6187 122.265 11.3 122.284 11.972C122.303 12.14 122.247 12.28 122.116 12.392C122.004 12.504 121.864 12.56 121.696 12.56H117.608C117.403 12.56 117.244 12.532 117.132 12.476C117.039 12.4013 116.955 12.2987 116.88 12.168C116.749 11.888 116.553 11.5987 116.292 11.3C116.049 10.9827 115.704 10.712 115.256 10.488C114.827 10.264 114.257 10.152 113.548 10.152C112.484 10.152 111.644 10.432 111.028 10.992C110.431 11.552 110.104 12.448 110.048 13.68C109.992 15.2853 109.992 16.9093 110.048 18.552C110.104 19.8587 110.449 20.8013 111.084 21.38C111.719 21.9587 112.559 22.248 113.604 22.248C114.313 22.248 114.939 22.1267 115.48 21.884C116.04 21.6413 116.479 21.268 116.796 20.764C117.113 20.2413 117.272 19.5787 117.272 18.776V18.244H114.64C114.435 18.244 114.257 18.1787 114.108 18.048C113.977 17.8987 113.912 17.7213 113.912 17.516V15.444C113.912 15.2387 113.977 15.0707 114.108 14.94C114.257 14.7907 114.435 14.716 114.64 14.716H121.696C121.901 14.716 122.069 14.7907 122.2 14.94C122.331 15.0707 122.396 15.2387 122.396 15.444V18.636C122.396 20.2413 122.032 21.6133 121.304 22.752C120.576 23.8907 119.54 24.768 118.196 25.384C116.871 25.9813 115.321 26.28 113.548 26.28ZM124.051 26C123.902 26 123.762 25.944 123.631 25.832C123.519 25.7013 123.463 25.5613 123.463 25.412C123.463 25.3187 123.472 25.2347 123.491 25.16L130.071 7.184C130.127 6.97867 130.239 6.80133 130.407 6.652C130.594 6.484 130.846 6.4 131.163 6.4H135.307C135.624 6.4 135.867 6.484 136.035 6.652C136.222 6.80133 136.343 6.97867 136.399 7.184L142.951 25.16C142.988 25.2347 143.007 25.3187 143.007 25.412C143.007 25.5613 142.942 25.7013 142.811 25.832C142.699 25.944 142.559 26 142.391 26H138.947C138.667 26 138.452 25.9347 138.303 25.804C138.172 25.6547 138.088 25.524 138.051 25.412L136.959 22.556H129.483L128.419 25.412C128.382 25.524 128.298 25.6547 128.167 25.804C128.036 25.9347 127.812 26 127.495 26H124.051ZM130.631 18.524H135.839L133.207 11.132L130.631 18.524ZM145.914 26C145.709 26 145.541 25.9347 145.41 25.804C145.279 25.6733 145.214 25.5053 145.214 25.3V7.1C145.214 6.89467 145.279 6.72667 145.41 6.596C145.541 6.46533 145.709 6.4 145.914 6.4H148.882C149.199 6.4 149.423 6.47467 149.554 6.624C149.703 6.75467 149.797 6.85733 149.834 6.932L156.666 17.712V7.1C156.666 6.89467 156.731 6.72667 156.862 6.596C156.993 6.46533 157.161 6.4 157.366 6.4H160.726C160.931 6.4 161.099 6.46533 161.23 6.596C161.361 6.72667 161.426 6.89467 161.426 7.1V25.3C161.426 25.4867 161.361 25.6547 161.23 25.804C161.099 25.9347 160.931 26 160.726 26H157.73C157.431 26 157.207 25.9253 157.058 25.776C156.927 25.6267 156.843 25.524 156.806 25.468L149.974 15.108V25.3C149.974 25.5053 149.909 25.6733 149.778 25.804C149.647 25.9347 149.479 26 149.274 26H145.914ZM166.039 26C165.834 26 165.666 25.9347 165.535 25.804C165.404 25.6733 165.339 25.5053 165.339 25.3V7.1C165.339 6.89467 165.404 6.72667 165.535 6.596C165.666 6.46533 165.834 6.4 166.039 6.4H169.735C169.922 6.4 170.08 6.46533 170.211 6.596C170.36 6.72667 170.435 6.89467 170.435 7.1V21.772H178.891C179.096 21.772 179.264 21.8467 179.395 21.996C179.544 22.1267 179.619 22.2947 179.619 22.5V25.3C179.619 25.5053 179.544 25.6733 179.395 25.804C179.264 25.9347 179.096 26 178.891 26H166.039ZM182.746 26C182.541 26 182.373 25.9347 182.242 25.804C182.111 25.6733 182.046 25.5053 182.046 25.3V7.1C182.046 6.89467 182.111 6.72667 182.242 6.596C182.373 6.46533 182.541 6.4 182.746 6.4H186.498C186.703 6.4 186.871 6.46533 187.002 6.596C187.133 6.72667 187.198 6.89467 187.198 7.1V25.3C187.198 25.5053 187.133 25.6733 187.002 25.804C186.871 25.9347 186.703 26 186.498 26H182.746ZM191.824 26C191.619 26 191.451 25.9347 191.32 25.804C191.189 25.6733 191.124 25.5053 191.124 25.3V7.1C191.124 6.89467 191.189 6.72667 191.32 6.596C191.451 6.46533 191.619 6.4 191.824 6.4H195.352C195.557 6.4 195.725 6.46533 195.856 6.596C195.987 6.72667 196.052 6.89467 196.052 7.1V13.316L201.232 6.932C201.307 6.82 201.428 6.708 201.596 6.596C201.783 6.46533 202.025 6.4 202.324 6.4H206.356C206.524 6.4 206.664 6.46533 206.776 6.596C206.888 6.708 206.944 6.83867 206.944 6.988C206.944 7.11867 206.907 7.23067 206.832 7.324L200.14 15.78L207.364 25.076C207.439 25.1507 207.476 25.2627 207.476 25.412C207.476 25.5613 207.411 25.7013 207.28 25.832C207.168 25.944 207.037 26 206.888 26H202.716C202.38 26 202.119 25.9253 201.932 25.776C201.764 25.6267 201.652 25.5147 201.596 25.44L196.052 18.524V25.3C196.052 25.5053 195.987 25.6733 195.856 25.804C195.725 25.9347 195.557 26 195.352 26H191.824ZM210.363 26C210.158 26 209.99 25.9347 209.859 25.804C209.728 25.6733 209.663 25.5053 209.663 25.3V7.1C209.663 6.89467 209.728 6.72667 209.859 6.596C209.99 6.46533 210.158 6.4 210.363 6.4H214.059C214.246 6.4 214.404 6.46533 214.535 6.596C214.684 6.72667 214.759 6.89467 214.759 7.1V21.772H223.215C223.42 21.772 223.588 21.8467 223.719 21.996C223.868 22.1267 223.943 22.2947 223.943 22.5V25.3C223.943 25.5053 223.868 25.6733 223.719 25.804C223.588 25.9347 223.42 26 223.215 26H210.363ZM225.25 26C225.101 26 224.961 25.944 224.83 25.832C224.718 25.7013 224.662 25.5613 224.662 25.412C224.662 25.3187 224.671 25.2347 224.69 25.16L231.27 7.184C231.326 6.97867 231.438 6.80133 231.606 6.652C231.793 6.484 232.045 6.4 232.362 6.4H236.506C236.823 6.4 237.066 6.484 237.234 6.652C237.421 6.80133 237.542 6.97867 237.598 7.184L244.15 25.16C244.187 25.2347 244.206 25.3187 244.206 25.412C244.206 25.5613 244.141 25.7013 244.01 25.832C243.898 25.944 243.758 26 243.59 26H240.146C239.866 26 239.651 25.9347 239.502 25.804C239.371 25.6547 239.287 25.524 239.25 25.412L238.158 22.556H230.682L229.618 25.412C229.581 25.524 229.497 25.6547 229.366 25.804C229.235 25.9347 229.011 26 228.694 26H225.25ZM231.83 18.524H237.038L234.406 11.132L231.83 18.524ZM247.113 26C246.908 26 246.74 25.9347 246.609 25.804C246.478 25.6733 246.413 25.5053 246.413 25.3V7.1C246.413 6.89467 246.478 6.72667 246.609 6.596C246.74 6.46533 246.908 6.4 247.113 6.4H254.729C257.137 6.4 259.032 6.96 260.413 8.08C261.813 9.18133 262.513 10.7493 262.513 12.784C262.513 14.1093 262.186 15.2293 261.533 16.144C260.898 17.0587 260.058 17.7493 259.013 18.216L262.877 25.104C262.933 25.216 262.961 25.3187 262.961 25.412C262.961 25.5613 262.896 25.7013 262.765 25.832C262.653 25.944 262.513 26 262.345 26H258.649C258.294 26 258.033 25.916 257.865 25.748C257.697 25.5613 257.576 25.3933 257.501 25.244L254.309 19.084H251.425V25.3C251.425 25.5053 251.36 25.6733 251.229 25.804C251.098 25.9347 250.93 26 250.725 26H247.113ZM251.425 15.136H254.673C255.55 15.136 256.204 14.9213 256.633 14.492C257.081 14.0627 257.305 13.4747 257.305 12.728C257.305 12 257.09 11.412 256.661 10.964C256.25 10.516 255.588 10.292 254.673 10.292H251.425V15.136ZM265.689 26C265.483 26 265.306 25.9347 265.157 25.804C265.026 25.6733 264.961 25.5053 264.961 25.3V23.312C264.961 23.1813 264.998 22.9853 265.073 22.724C265.147 22.444 265.343 22.1827 265.66 21.94L268.573 19.084C270.066 17.9453 271.289 16.984 272.241 16.2C273.211 15.3973 273.93 14.688 274.397 14.072C274.863 13.456 275.097 12.8773 275.097 12.336C275.097 11.7013 274.929 11.1787 274.593 10.768C274.275 10.3387 273.715 10.124 272.913 10.124C272.371 10.124 271.914 10.2453 271.541 10.488C271.186 10.712 270.915 11.0107 270.729 11.384C270.542 11.7573 270.411 12.14 270.337 12.532C270.262 12.7747 270.131 12.9427 269.945 13.036C269.777 13.1293 269.59 13.176 269.385 13.176H265.885C265.717 13.176 265.577 13.12 265.465 13.008C265.353 12.896 265.297 12.756 265.297 12.588C265.315 11.692 265.502 10.852 265.857 10.068C266.23 9.284 266.743 8.59333 267.397 7.996C268.069 7.38 268.862 6.904 269.777 6.568C270.71 6.232 271.755 6.064 272.913 6.064C274.499 6.064 275.843 6.316 276.945 6.82C278.065 7.324 278.914 8.03333 279.493 8.948C280.071 9.844 280.361 10.8987 280.361 12.112C280.361 13.0267 280.155 13.8853 279.745 14.688C279.353 15.472 278.783 16.228 278.037 16.956C277.309 17.6653 276.441 18.4027 275.433 19.168L272.857 21.772H280.053C280.258 21.772 280.426 21.8373 280.557 21.968C280.706 22.0987 280.781 22.2667 280.781 22.472V25.3C280.781 25.5053 280.706 25.6733 280.557 25.804C280.426 25.9347 280.258 26 280.053 26H265.689ZM292.806 26C292.619 26 292.451 25.9347 292.302 25.804C292.171 25.6733 292.106 25.5053 292.106 25.3V22.136H283.398C283.211 22.136 283.043 22.0707 282.894 21.94C282.763 21.8093 282.698 21.6413 282.698 21.436V18.776C282.698 18.608 282.726 18.4587 282.782 18.328C282.857 18.1787 282.931 18.0387 283.006 17.908L291.154 6.876C291.397 6.55867 291.742 6.4 292.19 6.4H296.25C296.455 6.4 296.623 6.46533 296.754 6.596C296.903 6.72667 296.978 6.89467 296.978 7.1V17.964H299.442C299.666 17.964 299.843 18.0387 299.974 18.188C300.105 18.3187 300.17 18.4773 300.17 18.664V21.436C300.17 21.6413 300.095 21.8093 299.946 21.94C299.815 22.0707 299.657 22.136 299.47 22.136H296.978V25.3C296.978 25.5053 296.903 25.6733 296.754 25.804C296.623 25.9347 296.455 26 296.25 26H292.806ZM287.514 18.16H292.218V11.552L287.514 18.16Z" fill="#295091"/>
</svg>
